<svg width="18" height="18" viewBox="0 0 18 18" fill="none" xmlns="http://www.w3.org/2000/svg">
<g opacity="0.2">
<path d="M10.1226 6.74737H8.99722V5.62226C8.99722 5.00087 8.49339 4.49714 7.87188 4.49714C7.25037 4.49714 6.74653 5.00087 6.74653 5.62226V6.74737H5.62118C4.99968 6.74737 4.49584 7.25111 4.49584 7.87249C4.49584 8.49387 4.99968 8.99761 5.62118 8.99761H6.74653V10.1227C6.74653 10.7441 7.25037 11.2478 7.87188 11.2478C8.49339 11.2478 8.99722 10.7441 8.99722 10.1227V8.99761H10.1226C10.7441 8.99761 11.2479 8.49387 11.2479 7.87249C11.2479 7.25111 10.7441 6.74737 10.1226 6.74737Z" fill="#2C3D5F"/>
<path d="M17.6716 16.0848L14.1884 12.6016C16.7971 9.11863 16.0878 4.1808 12.6041 1.57267C9.12049 -1.03546 4.18169 -0.326351 1.57299 3.15659C-1.0357 6.63954 -0.32638 11.5774 3.15727 14.1855C5.95612 16.2809 9.80136 16.2818 12.6012 14.1877L16.0858 17.6716C16.5237 18.1095 17.2337 18.1095 17.6716 17.6716C18.1095 17.2338 18.1095 16.524 17.6716 16.0862V16.0848ZM7.91112 13.5153C4.81572 13.5153 2.3064 11.0065 2.3064 7.91173C2.3064 4.81695 4.81575 2.30815 7.91112 2.30815C11.0065 2.30815 13.5158 4.81695 13.5158 7.91173C13.5126 11.0051 11.0052 13.512 7.91112 13.5153Z" fill="#2C3D5F"/>
</g>
</svg>
