<svg width="12" height="9" viewBox="0 0 12 9" fill="none" xmlns="http://www.w3.org/2000/svg">
<path d="M2.13655 0.990188C1.46681 0.958974 0.888211 1.47974 0.967388 2.14552C1.07102 3.01696 1.33007 3.86618 1.73552 4.65182C2.32734 5.79862 3.21028 6.76966 4.29578 7.46757C5.38129 8.16548 6.63121 8.56572 7.9202 8.62816C8.80326 8.67094 9.68339 8.55414 10.5192 8.28673C11.1578 8.08242 11.3915 7.33987 11.0851 6.74349C10.7787 6.14712 10.0465 5.92878 9.39342 6.08063C8.95121 6.18345 8.49503 6.22517 8.03768 6.20302C7.17389 6.16117 6.33628 5.89296 5.60885 5.42527C4.88142 4.95758 4.28973 4.30685 3.89314 3.53835C3.68315 3.13145 3.53176 2.69911 3.44176 2.25411C3.30885 1.59695 2.80629 1.0214 2.13655 0.990188Z" fill="#4581FB"/>
</svg>
