<svg width="14" height="14" viewBox="0 0 14 14" fill="none" xmlns="http://www.w3.org/2000/svg">
<path d="M4.08333 14C4.72767 14 5.25 13.4777 5.25 12.8333C5.25 12.189 4.72767 11.6667 4.08333 11.6667C3.439 11.6667 2.91667 12.189 2.91667 12.8333C2.91667 13.4777 3.439 14 4.08333 14Z" fill="white"/>
<path d="M9.91667 14C10.561 14 11.0833 13.4777 11.0833 12.8333C11.0833 12.189 10.561 11.6667 9.91667 11.6667C9.27233 11.6667 8.75 12.189 8.75 12.8333C8.75 13.4777 9.27233 14 9.91667 14Z" fill="white"/>
<path d="M11.5208 7.67783C11.4362 7.98594 11.2528 8.25773 10.9987 8.45143C10.7446 8.64513 10.4339 8.75003 10.1144 8.75H4.20992C4.16222 8.74961 4.11638 8.73147 4.08133 8.69911C4.04628 8.66676 4.02454 8.62251 4.02033 8.575L3.521 4.66667H6.125C6.35706 4.66667 6.57962 4.57448 6.74372 4.41039C6.90781 4.24629 7 4.02373 7 3.79167C7 3.5596 6.90781 3.33704 6.74372 3.17295C6.57962 3.00886 6.35706 2.91667 6.125 2.91667H3.29758L3.14475 1.71442C3.0893 1.24217 2.8624 0.806707 2.50712 0.490678C2.15185 0.174649 1.69291 4.5227e-05 1.21742 2.64247e-06H0.875C0.642936 2.64247e-06 0.420376 0.0921899 0.256282 0.256284C0.0921872 0.420378 0 0.642938 0 0.875003C0 1.10707 0.0921872 1.32963 0.256282 1.49372C0.420376 1.65782 0.642936 1.75 0.875 1.75H1.21742C1.26511 1.7504 1.31095 1.76854 1.346 1.80089C1.38105 1.83324 1.4028 1.87749 1.407 1.925L2.282 8.785C2.33733 9.25746 2.56425 9.69314 2.91967 10.0093C3.27508 10.3255 3.73423 10.5001 4.20992 10.5H10.1144C10.8168 10.4996 11.4996 10.2687 12.0581 9.84277C12.6166 9.41684 13.0199 8.81941 13.2061 8.14217L13.2154 8.10717C13.2511 7.97748 13.2564 7.84132 13.2309 7.70925C13.2055 7.57718 13.1499 7.45276 13.0685 7.34566C12.9871 7.23856 12.8822 7.15166 12.7618 7.09171C12.6414 7.03176 12.5088 7.00038 12.3742 7C12.1828 6.99996 11.9967 7.0627 11.8443 7.1786C11.6919 7.2945 11.5818 7.45717 11.5307 7.64167L11.5208 7.67783Z" fill="white"/>
<path d="M13.125 1.75H12.25V0.875C12.25 0.642935 12.1578 0.420376 11.9937 0.256282C11.8296 0.0921872 11.6071 0 11.375 0C11.1429 0 10.9204 0.0921872 10.7563 0.256282C10.5922 0.420376 10.5 0.642935 10.5 0.875V1.75H9.625C9.39293 1.75 9.17038 1.84219 9.00628 2.00628C8.84219 2.17038 8.75 2.39294 8.75 2.625C8.75 2.85706 8.84219 3.07962 9.00628 3.24372C9.17038 3.40781 9.39293 3.5 9.625 3.5H10.5V4.375C10.5 4.60706 10.5922 4.82962 10.7563 4.99372C10.9204 5.15781 11.1429 5.25 11.375 5.25C11.6071 5.25 11.8296 5.15781 11.9937 4.99372C12.1578 4.82962 12.25 4.60706 12.25 4.375V3.5H13.125C13.3571 3.5 13.5796 3.40781 13.7437 3.24372C13.9078 3.07962 14 2.85706 14 2.625C14 2.39294 13.9078 2.17038 13.7437 2.00628C13.5796 1.84219 13.3571 1.75 13.125 1.75Z" fill="white"/>
</svg>
