<svg width="24" height="24" viewBox="0 0 24 24" fill="none" xmlns="http://www.w3.org/2000/svg">
<path d="M2.29614 4.36133C5.68914 -0.172899 12.1154 -1.09808 16.6497 2.29492C21.1838 5.68795 22.109 12.1143 18.7161 16.6484L18.5862 16.8213L18.7395 16.9746L23.3088 21.5459V21.5488L23.384 21.624C23.8704 22.1103 23.8704 22.8984 23.384 23.3848C22.8977 23.8711 22.1097 23.8711 21.6233 23.3848L16.9758 18.7383L16.8225 18.585L16.6497 18.7148C13.0074 21.4403 8.0048 21.4403 4.36255 18.7148C-0.171667 15.3219 -1.09683 8.89555 2.29614 4.36133ZM10.5452 2.81934C6.27904 2.81934 2.82056 6.27782 2.82056 10.5439C2.82081 14.8099 6.2792 18.2676 10.5452 18.2676C14.8091 18.2629 18.2642 14.8078 18.2688 10.5439C18.2688 6.27798 14.8111 2.81959 10.5452 2.81934Z" fill="#2C3D5F" stroke="#F4F8F9" stroke-width="0.5"/>
</svg>
