<svg width="24" height="24" viewBox="0 0 24 24" fill="none" xmlns="http://www.w3.org/2000/svg">
<g clip-path="url(#clip0_37_25)">
<path d="M12 0.25C13.525 0.25 14.9871 0.856236 16.0654 1.93457C17.1438 3.0129 17.75 4.47501 17.75 6V6.4502H20.4971L20.6572 6.45605C21.4581 6.50475 22.2162 6.84412 22.7861 7.41406C23.3558 7.98381 23.6953 8.74146 23.7441 9.54199L23.75 9.70312V18.5C23.7372 19.8884 23.1801 21.2164 22.1982 22.1982C21.216 23.1805 19.8871 23.7377 18.498 23.75H5.50195C4.11285 23.7377 2.78404 23.1805 1.80176 22.1982C0.880886 21.2774 0.333747 20.0519 0.258789 18.7578L0.25 18.498V9.70312C0.26037 8.84363 0.606099 8.02188 1.21387 7.41406C1.78381 6.84412 2.54191 6.50475 3.34277 6.45605L3.50293 6.4502H6.25V6C6.25 4.47501 6.85624 3.0129 7.93457 1.93457C9.0129 0.856236 10.475 0.25 12 0.25ZM3.43848 8.9502C3.36243 8.95364 3.28733 8.96905 3.21582 8.99609C3.12036 9.03225 3.03317 9.08804 2.96094 9.16016C2.8887 9.23239 2.83212 9.31952 2.7959 9.41504C2.76875 9.48671 2.75343 9.56243 2.75 9.63867V18.498C2.74654 18.8602 2.81524 19.2194 2.95215 19.5547C3.08922 19.8902 3.29156 20.1959 3.54785 20.4521C3.80414 20.7084 4.10978 20.9108 4.44531 21.0479C4.77999 21.1845 5.13852 21.2522 5.5 21.249V21.25H18.5V21.249C18.8615 21.2522 19.22 21.1845 19.5547 21.0479C19.8902 20.9108 20.1959 20.7084 20.4521 20.4521C20.7084 20.1959 20.9108 19.8902 21.0479 19.5547C21.1506 19.3032 21.215 19.0382 21.2393 18.7686L21.25 18.498V9.63867C21.2466 9.56243 21.2312 9.48671 21.2041 9.41504C21.1679 9.31951 21.1113 9.23239 21.0391 9.16016C20.9668 9.08804 20.8796 9.03225 20.7842 8.99609C20.7127 8.96905 20.6376 8.95364 20.5615 8.9502H17.75V10.5C17.75 10.8315 17.6182 11.1494 17.3838 11.3838C17.1494 11.6182 16.8315 11.75 16.5 11.75C16.1685 11.75 15.8506 11.6182 15.6162 11.3838C15.3818 11.1494 15.25 10.8315 15.25 10.5V8.9502H8.75V10.5C8.75 10.8315 8.61821 11.1494 8.38379 11.3838C8.14937 11.6182 7.83152 11.75 7.5 11.75C7.16848 11.75 6.85063 11.6182 6.61621 11.3838C6.38179 11.1494 6.25 10.8315 6.25 10.5V8.9502H3.43848ZM12 2.75C11.138 2.75 10.3116 3.09266 9.70215 3.70215C9.09266 4.31164 8.75 5.13805 8.75 6V6.4502H15.25V6C15.25 5.13805 14.9073 4.31164 14.2979 3.70215C13.6884 3.09266 12.862 2.75 12 2.75Z" fill="#2C3D5F" stroke="#F4F8F9" stroke-width="0.5"/>
</g>
<defs>
<clipPath id="clip0_37_25">
<rect width="24" height="24" fill="white"/>
</clipPath>
</defs>
</svg>
