<svg width="16" height="24" viewBox="0 0 16 24" fill="none" xmlns="http://www.w3.org/2000/svg">
<path d="M0.250977 22.2789C0.196135 18.1315 3.34282 14.6399 7.47363 14.2662C7.64286 14.2549 7.81274 14.2498 7.98242 14.2496C12.2668 14.245 15.7441 17.7143 15.749 21.9986V22.4986C15.749 23.1888 15.1892 23.7486 14.499 23.7486C13.8088 23.7486 13.249 23.1889 13.249 22.4986V21.9986L13.2422 21.7418C13.2379 21.6561 13.2321 21.5704 13.2236 21.485C12.9372 18.5968 10.3637 16.4869 7.47559 16.773L7.46777 16.774C4.73704 17.1226 2.70514 19.4692 2.75 22.2213V22.4986C2.75 23.1887 2.19103 23.7484 1.50098 23.7486C0.810728 23.7486 0.250977 23.1889 0.250977 22.4986V22.2789Z" fill="#2C3D5F" stroke="#F4F8F9" stroke-width="0.5"/>
<path d="M7.99951 0.251465C11.1746 0.251465 13.7484 2.82539 13.7485 6.00049C13.7485 9.1757 11.1747 11.7495 7.99951 11.7495C4.8257 11.7461 2.25368 9.17442 2.25049 6.00049L2.2583 5.70459C2.41243 2.66709 4.92374 0.25159 7.99951 0.251465ZM7.99951 2.75146C6.20499 2.75159 4.75062 4.20597 4.75049 6.00049C4.75049 7.79512 6.20491 9.25036 7.99951 9.25049C9.79422 9.25049 11.2495 7.7952 11.2495 6.00049C11.2494 4.20589 9.79414 2.75146 7.99951 2.75146Z" fill="#2C3D5F" stroke="#F4F8F9" stroke-width="0.5"/>
</svg>
