<svg width="14" height="14" viewBox="0 0 14 14" fill="none" xmlns="http://www.w3.org/2000/svg">
<path d="M7.87311 5.24796H6.99784V4.37287C6.99784 3.88957 6.60597 3.49777 6.12257 3.49777C5.63918 3.49777 5.2473 3.88957 5.2473 4.37287V5.24796H4.37203C3.88864 5.24796 3.49676 5.63975 3.49676 6.12305C3.49676 6.60635 3.88864 6.99814 4.37203 6.99814H5.2473V7.87323C5.2473 8.35653 5.63918 8.74833 6.12257 8.74833C6.60597 8.74833 6.99784 8.35653 6.99784 7.87323V6.99814H7.87311C8.35651 6.99814 8.74838 6.60635 8.74838 6.12305C8.74838 5.63975 8.35651 5.24796 7.87311 5.24796Z" fill="white"/>
<path d="M13.7446 12.5104L11.0354 9.80123C13.0644 7.09227 12.5127 3.25174 9.80322 1.22319C7.09371 -0.805356 3.25242 -0.253829 1.22344 2.45513C-0.805545 5.16409 -0.253851 9.00462 2.45566 11.0332C4.63253 12.6629 7.62328 12.6637 9.80092 11.0349L12.5112 13.7446C12.8518 14.0851 13.404 14.0851 13.7446 13.7446C14.0851 13.4041 14.0851 12.852 13.7446 12.5115V12.5104ZM6.1531 10.5119C3.74556 10.5119 1.79387 8.56062 1.79387 6.15357C1.79387 3.74652 3.74558 1.79523 6.1531 1.79523C8.56061 1.79523 10.5123 3.74652 10.5123 6.15357C10.5098 8.55955 8.5596 10.5094 6.1531 10.5119Z" fill="white"/>
</svg>
